<svg height='100px' width='100px'  fill="#000000" xmlns="http://www.w3.org/2000/svg" xmlns:xlink="http://www.w3.org/1999/xlink" version="1.1" x="0px" y="0px" viewBox="0 0 1024 1024" style="enable-background:new 0 0 1024 1024;" xml:space="preserve"><path d="M713,163.9c-29.3-41.1-70-72.4-117.4-89.8C547.8,56.5,493.9,54.8,445,68.7c-47.2,13.4-90.4,41.3-121.6,79.1  C290.7,187.5,271,235.8,267,287c-3.9,50.4,8.4,102,34.6,145.2c25.3,41.7,63.3,76.1,107.8,96.2c23.2,10.5,47.6,17.3,72.5,20.4v336.5  c0,6.4,0,12.8-0.1,19.2h-33.1c-15.7,0-30.7,13.8-30,30c0.7,16.3,13.2,30,30,30h126.4c15.7,0,30.7-13.8,30-30  c-0.7-16.3-13.2-30-30-30H542V585c0-12,0.2-24.1,0.1-36.1c6.4-0.8,12.8-1.8,19.2-3.1c48.5-9.7,93.9-35,128.1-70.7  c34.1-35.7,57.6-81.8,65.1-130.7c2-13,3.2-26,3.2-39.2v-0.1C757.5,254.9,742.2,204.9,713,163.9z M512,175.2c-4.7,0-9.3,0.2-14,0.6  c-1.1,0.1-2.3,0.2-3.4,0.4c-0.5,0-1.3,0.3-1.8,0.4c0.2-0.1,0.5-0.2,1-0.3c3-1-0.6,0.1-1.4,0.3c-0.9,0.1-1.8,0.3-2.7,0.5  c-8.2,1.5-16.2,3.7-24,6.6c-0.8,0.3-2.2,0.6-3.5,1.1c0,0.1-0.2,0.3-1,0.7c-0.8,0.4-1.6,0.7-2.4,1.1c-3.2,1.5-6.3,3.1-9.4,4.8  c-3.4,1.9-6.8,4-10.1,6.1c-1.3,0.8-2.5,1.7-3.8,2.6c-0.6,0.4-5.4,3.6-2.7,1.9c2.7-1.6-0.5,0.4-1.1,0.9c-0.7,0.5-1.4,1.1-2,1.7  c-1.3,1.1-2.7,2.3-4,3.4c-2.6,2.3-5.1,4.8-7.5,7.3c-2.7,2.8-5.3,5.8-7.8,8.8c-0.6,0.7-1.1,1.4-1.7,2c-0.5,0.7-0.8,0.9-0.8,0.8  c-0.6,1-1.2,2.1-1.6,2.5c-4,5.7-7.7,11.8-10.8,18c-1,2-1.9,4-2.9,6c-0.1,0.1-0.2,0.4-0.3,0.7c0,0,0,0,0,0c-0.1,0.2-0.2,0.4-0.3,0.7  c-1.3,3.3-2.5,6.6-3.6,10c-2.2,6.9-3.9,13.9-5.1,21c-0.1,0.7-0.2,1.3-0.3,2c0,0.2,0,0.4-0.1,0.5c0,0,0,0,0,0c0,0.1,0,0.2,0,0.3  c-0.2,1.8-0.4,3.7-0.5,5.5c-0.3,3.7-0.4,7.5-0.4,11.2c0,11.2-9.1,19.5-20,20c-10.8,0.5-20-9.5-20-20c0.1-19.4,3.3-39.2,10-57.5  c12.3-33.2,33.9-61.3,62.7-81.8c28.1-20.1,62.8-30.4,97.2-30.6c11.2,0,19.5,9.2,20,20C532.5,166.1,522.5,175.2,512,175.2z"></path></svg>